solid OpenSCAD_Model
  facet normal 0.904827 0.425779 0
    outer loop
      vertex 9.29776 3.68124 5
      vertex 8.76307 4.81754 0
      vertex 8.76307 4.81754 5
    endloop
  endfacet
  facet normal 0.904827 0.425779 0
    outer loop
      vertex 8.76307 4.81754 0
      vertex 9.29776 3.68124 5
      vertex 9.29776 3.68124 0
    endloop
  endfacet
  facet normal -0.951057 0.309017 0
    outer loop
      vertex -9.68583 2.4869 0
      vertex -9.29776 3.68124 5
      vertex -9.29776 3.68124 0
    endloop
  endfacet
  facet normal -0.951057 0.309017 0
    outer loop
      vertex -9.29776 3.68124 5
      vertex -9.68583 2.4869 0
      vertex -9.68583 2.4869 5
    endloop
  endfacet
  facet normal 0.844328 0.535826 0
    outer loop
      vertex 8.76307 4.81754 5
      vertex 8.09017 5.87785 0
      vertex 8.09017 5.87785 5
    endloop
  endfacet
  facet normal 0.844328 0.535826 0
    outer loop
      vertex 8.09017 5.87785 0
      vertex 8.76307 4.81754 5
      vertex 8.76307 4.81754 0
    endloop
  endfacet
  facet normal 0.24869 0.968583 -0
    outer loop
      vertex 3.09017 9.51056 0
      vertex 1.87381 9.82287 5
      vertex 3.09017 9.51056 5
    endloop
  endfacet
  facet normal 0.24869 0.968583 0
    outer loop
      vertex 1.87381 9.82287 5
      vertex 3.09017 9.51056 0
      vertex 1.87381 9.82287 0
    endloop
  endfacet
  facet normal 0.368125 0.929776 -0
    outer loop
      vertex 4.25779 9.04827 0
      vertex 3.09017 9.51056 5
      vertex 4.25779 9.04827 5
    endloop
  endfacet
  facet normal 0.368125 0.929776 0
    outer loop
      vertex 3.09017 9.51056 5
      vertex 4.25779 9.04827 0
      vertex 3.09017 9.51056 0
    endloop
  endfacet
  facet normal -0.368125 0.929776 0
    outer loop
      vertex -3.09017 9.51056 0
      vertex -4.25779 9.04827 5
      vertex -3.09017 9.51056 5
    endloop
  endfacet
  facet normal -0.368125 0.929776 0
    outer loop
      vertex -4.25779 9.04827 5
      vertex -3.09017 9.51056 0
      vertex -4.25779 9.04827 0
    endloop
  endfacet
  facet normal -0.904827 0.425779 0
    outer loop
      vertex -9.29776 3.68124 0
      vertex -8.76307 4.81754 5
      vertex -8.76307 4.81754 0
    endloop
  endfacet
  facet normal -0.904827 0.425779 0
    outer loop
      vertex -8.76307 4.81754 5
      vertex -9.29776 3.68124 0
      vertex -9.29776 3.68124 5
    endloop
  endfacet
  facet normal 0.998027 -0.062791 0
    outer loop
      vertex 9.92115 -1.25333 5
      vertex 10 0 0
      vertex 10 0 5
    endloop
  endfacet
  facet normal 0.998027 -0.062791 0
    outer loop
      vertex 10 0 0
      vertex 9.92115 -1.25333 5
      vertex 9.92115 -1.25333 0
    endloop
  endfacet
  facet normal 0.368125 -0.929776 0
    outer loop
      vertex 3.09017 -9.51056 0
      vertex 4.25779 -9.04827 5
      vertex 3.09017 -9.51056 5
    endloop
  endfacet
  facet normal 0.368125 -0.929776 0
    outer loop
      vertex 4.25779 -9.04827 5
      vertex 3.09017 -9.51056 0
      vertex 4.25779 -9.04827 0
    endloop
  endfacet
  facet normal 0.125333 0.992115 -0
    outer loop
      vertex 1.87381 9.82287 0
      vertex 0.627905 9.98027 5
      vertex 1.87381 9.82287 5
    endloop
  endfacet
  facet normal 0.125333 0.992115 0
    outer loop
      vertex 0.627905 9.98027 5
      vertex 1.87381 9.82287 0
      vertex 0.627905 9.98027 0
    endloop
  endfacet
  facet normal -0.770513 0.637424 0
    outer loop
      vertex -8.09017 5.87785 0
      vertex -7.28969 6.84547 5
      vertex -7.28969 6.84547 0
    endloop
  endfacet
  facet normal -0.770513 0.637424 0
    outer loop
      vertex -7.28969 6.84547 5
      vertex -8.09017 5.87785 0
      vertex -8.09017 5.87785 5
    endloop
  endfacet
  facet normal -0.481754 0.876307 0
    outer loop
      vertex -4.25779 9.04827 0
      vertex -5.35827 8.44328 5
      vertex -4.25779 9.04827 5
    endloop
  endfacet
  facet normal -0.481754 0.876307 0
    outer loop
      vertex -5.35827 8.44328 5
      vertex -4.25779 9.04827 0
      vertex -5.35827 8.44328 0
    endloop
  endfacet
  facet normal -0.125333 0.992115 0
    outer loop
      vertex -0.627905 9.98027 0
      vertex -1.87381 9.82287 5
      vertex -0.627905 9.98027 5
    endloop
  endfacet
  facet normal -0.125333 0.992115 0
    outer loop
      vertex -1.87381 9.82287 5
      vertex -0.627905 9.98027 0
      vertex -1.87381 9.82287 0
    endloop
  endfacet
  facet normal -0.587786 0.809017 0
    outer loop
      vertex -5.35827 8.44328 0
      vertex -6.37424 7.70513 5
      vertex -5.35827 8.44328 5
    endloop
  endfacet
  facet normal -0.587786 0.809017 0
    outer loop
      vertex -6.37424 7.70513 5
      vertex -5.35827 8.44328 0
      vertex -6.37424 7.70513 0
    endloop
  endfacet
  facet normal 0.998027 0.062791 0
    outer loop
      vertex 10 0 5
      vertex 9.92115 1.25333 0
      vertex 9.92115 1.25333 5
    endloop
  endfacet
  facet normal 0.998027 0.062791 0
    outer loop
      vertex 9.92115 1.25333 0
      vertex 10 0 5
      vertex 10 0 0
    endloop
  endfacet
  facet normal 0.951057 -0.309017 0
    outer loop
      vertex 9.29776 -3.68124 5
      vertex 9.68583 -2.4869 0
      vertex 9.68583 -2.4869 5
    endloop
  endfacet
  facet normal 0.951057 -0.309017 0
    outer loop
      vertex 9.68583 -2.4869 0
      vertex 9.29776 -3.68124 5
      vertex 9.29776 -3.68124 0
    endloop
  endfacet
  facet normal -0.125333 -0.992115 0
    outer loop
      vertex -1.87381 -9.82287 0
      vertex -0.627905 -9.98027 5
      vertex -1.87381 -9.82287 5
    endloop
  endfacet
  facet normal -0.125333 -0.992115 -0
    outer loop
      vertex -0.627905 -9.98027 5
      vertex -1.87381 -9.82287 0
      vertex -0.627905 -9.98027 0
    endloop
  endfacet
  facet normal 0.24869 -0.968583 0
    outer loop
      vertex 1.87381 -9.82287 0
      vertex 3.09017 -9.51056 5
      vertex 1.87381 -9.82287 5
    endloop
  endfacet
  facet normal 0.24869 -0.968583 0
    outer loop
      vertex 3.09017 -9.51056 5
      vertex 1.87381 -9.82287 0
      vertex 3.09017 -9.51056 0
    endloop
  endfacet
  facet normal 0.951057 0.309017 0
    outer loop
      vertex 9.68583 2.4869 5
      vertex 9.29776 3.68124 0
      vertex 9.29776 3.68124 5
    endloop
  endfacet
  facet normal 0.951057 0.309017 0
    outer loop
      vertex 9.29776 3.68124 0
      vertex 9.68583 2.4869 5
      vertex 9.68583 2.4869 0
    endloop
  endfacet
  facet normal 0.684547 0.728969 -0
    outer loop
      vertex 7.28969 6.84547 0
      vertex 6.37424 7.70513 5
      vertex 7.28969 6.84547 5
    endloop
  endfacet
  facet normal 0.684547 0.728969 0
    outer loop
      vertex 6.37424 7.70513 5
      vertex 7.28969 6.84547 0
      vertex 6.37424 7.70513 0
    endloop
  endfacet
  facet normal 0.770513 0.637424 0
    outer loop
      vertex 8.09017 5.87785 5
      vertex 7.28969 6.84547 0
      vertex 7.28969 6.84547 5
    endloop
  endfacet
  facet normal 0.770513 0.637424 0
    outer loop
      vertex 7.28969 6.84547 0
      vertex 8.09017 5.87785 5
      vertex 8.09017 5.87785 0
    endloop
  endfacet
  facet normal 0 1 -0
    outer loop
      vertex 0.627905 9.98027 0
      vertex -0.627905 9.98027 5
      vertex 0.627905 9.98027 5
    endloop
  endfacet
  facet normal 0 1 0
    outer loop
      vertex -0.627905 9.98027 5
      vertex 0.627905 9.98027 0
      vertex -0.627905 9.98027 0
    endloop
  endfacet
  facet normal 0.587786 0.809017 -0
    outer loop
      vertex 6.37424 7.70513 0
      vertex 5.35827 8.44328 5
      vertex 6.37424 7.70513 5
    endloop
  endfacet
  facet normal 0.587786 0.809017 0
    outer loop
      vertex 5.35827 8.44328 5
      vertex 6.37424 7.70513 0
      vertex 5.35827 8.44328 0
    endloop
  endfacet
  facet normal 0.481754 0.876307 -0
    outer loop
      vertex 5.35827 8.44328 0
      vertex 4.25779 9.04827 5
      vertex 5.35827 8.44328 5
    endloop
  endfacet
  facet normal 0.481754 0.876307 0
    outer loop
      vertex 4.25779 9.04827 5
      vertex 5.35827 8.44328 0
      vertex 4.25779 9.04827 0
    endloop
  endfacet
  facet normal -0.998027 0.062791 0
    outer loop
      vertex -10 0 0
      vertex -9.92115 1.25333 5
      vertex -9.92115 1.25333 0
    endloop
  endfacet
  facet normal -0.998027 0.062791 0
    outer loop
      vertex -9.92115 1.25333 5
      vertex -10 0 0
      vertex -10 0 5
    endloop
  endfacet
  facet normal -0.684547 0.728969 0
    outer loop
      vertex -6.37424 7.70513 0
      vertex -7.28969 6.84547 5
      vertex -6.37424 7.70513 5
    endloop
  endfacet
  facet normal -0.684547 0.728969 0
    outer loop
      vertex -7.28969 6.84547 5
      vertex -6.37424 7.70513 0
      vertex -7.28969 6.84547 0
    endloop
  endfacet
  facet normal 0.982287 -0.187381 0
    outer loop
      vertex 9.68583 -2.4869 5
      vertex 9.92115 -1.25333 0
      vertex 9.92115 -1.25333 5
    endloop
  endfacet
  facet normal 0.982287 -0.187381 0
    outer loop
      vertex 9.92115 -1.25333 0
      vertex 9.68583 -2.4869 5
      vertex 9.68583 -2.4869 0
    endloop
  endfacet
  facet normal -0.24869 -0.968583 0
    outer loop
      vertex -3.09017 -9.51056 0
      vertex -1.87381 -9.82287 5
      vertex -3.09017 -9.51056 5
    endloop
  endfacet
  facet normal -0.24869 -0.968583 -0
    outer loop
      vertex -1.87381 -9.82287 5
      vertex -3.09017 -9.51056 0
      vertex -1.87381 -9.82287 0
    endloop
  endfacet
  facet normal 0.125333 -0.992115 0
    outer loop
      vertex 0.627905 -9.98027 0
      vertex 1.87381 -9.82287 5
      vertex 0.627905 -9.98027 5
    endloop
  endfacet
  facet normal 0.125333 -0.992115 0
    outer loop
      vertex 1.87381 -9.82287 5
      vertex 0.627905 -9.98027 0
      vertex 1.87381 -9.82287 0
    endloop
  endfacet
  facet normal 0.982287 0.187381 0
    outer loop
      vertex 9.92115 1.25333 5
      vertex 9.68583 2.4869 0
      vertex 9.68583 2.4869 5
    endloop
  endfacet
  facet normal 0.982287 0.187381 0
    outer loop
      vertex 9.68583 2.4869 0
      vertex 9.92115 1.25333 5
      vertex 9.92115 1.25333 0
    endloop
  endfacet
  facet normal 0 0 1
    outer loop
      vertex 5 0 5
      vertex 10 0 5
      vertex 9.92115 1.25333 5
    endloop
  endfacet
  facet normal 0 0 1
    outer loop
      vertex 4.96057 0.626666 5
      vertex 9.92115 1.25333 5
      vertex 9.68583 2.4869 5
    endloop
  endfacet
  facet normal 0 0 1
    outer loop
      vertex 10 0 5
      vertex 5 0 5
      vertex 9.92115 -1.25333 5
    endloop
  endfacet
  facet normal 0 0 1
    outer loop
      vertex 4.84292 1.24345 5
      vertex 9.68583 2.4869 5
      vertex 9.29776 3.68124 5
    endloop
  endfacet
  facet normal -0 0 1
    outer loop
      vertex 4.96057 -0.626666 5
      vertex 9.92115 -1.25333 5
      vertex 5 0 5
    endloop
  endfacet
  facet normal 0 0 1
    outer loop
      vertex 4.64888 1.84062 5
      vertex 9.29776 3.68124 5
      vertex 8.76307 4.81754 5
    endloop
  endfacet
  facet normal 0 0 1
    outer loop
      vertex 9.92115 -1.25333 5
      vertex 4.96057 -0.626666 5
      vertex 9.68583 -2.4869 5
    endloop
  endfacet
  facet normal 0 0 1
    outer loop
      vertex 4.38153 2.40877 5
      vertex 8.76307 4.81754 5
      vertex 8.09017 5.87785 5
    endloop
  endfacet
  facet normal -0 0 1
    outer loop
      vertex 4.84292 -1.24345 5
      vertex 9.68583 -2.4869 5
      vertex 4.96057 -0.626666 5
    endloop
  endfacet
  facet normal 0 0 1
    outer loop
      vertex 4.04508 2.93893 5
      vertex 8.09017 5.87785 5
      vertex 7.28969 6.84547 5
    endloop
  endfacet
  facet normal 0 0 1
    outer loop
      vertex 9.68583 -2.4869 5
      vertex 4.84292 -1.24345 5
      vertex 9.29776 -3.68124 5
    endloop
  endfacet
  facet normal 0 0 1
    outer loop
      vertex 3.64484 3.42274 5
      vertex 7.28969 6.84547 5
      vertex 6.37424 7.70513 5
    endloop
  endfacet
  facet normal -0 0 1
    outer loop
      vertex 4.64888 -1.84062 5
      vertex 9.29776 -3.68124 5
      vertex 4.84292 -1.24345 5
    endloop
  endfacet
  facet normal 0 0 1
    outer loop
      vertex 3.18712 3.85257 5
      vertex 6.37424 7.70513 5
      vertex 5.35827 8.44328 5
    endloop
  endfacet
  facet normal 0 0 1
    outer loop
      vertex 9.29776 -3.68124 5
      vertex 4.64888 -1.84062 5
      vertex 8.76307 -4.81754 5
    endloop
  endfacet
  facet normal -0 0 1
    outer loop
      vertex 4.38153 -2.40877 5
      vertex 8.76307 -4.81754 5
      vertex 4.64888 -1.84062 5
    endloop
  endfacet
  facet normal 0 0 1
    outer loop
      vertex 9.92115 1.25333 5
      vertex 4.96057 0.626666 5
      vertex 5 0 5
    endloop
  endfacet
  facet normal 0 0 1
    outer loop
      vertex 9.68583 2.4869 5
      vertex 4.84292 1.24345 5
      vertex 4.96057 0.626666 5
    endloop
  endfacet
  facet normal 0 0 1
    outer loop
      vertex 9.29776 3.68124 5
      vertex 4.64888 1.84062 5
      vertex 4.84292 1.24345 5
    endloop
  endfacet
  facet normal 0 0 1
    outer loop
      vertex 8.76307 4.81754 5
      vertex 4.38153 2.40877 5
      vertex 4.64888 1.84062 5
    endloop
  endfacet
  facet normal 0 0 1
    outer loop
      vertex 2.67913 4.22164 5
      vertex 5.35827 8.44328 5
      vertex 4.25779 9.04827 5
    endloop
  endfacet
  facet normal 0 0 1
    outer loop
      vertex 8.09017 5.87785 5
      vertex 4.04508 2.93893 5
      vertex 4.38153 2.40877 5
    endloop
  endfacet
  facet normal 0 0 1
    outer loop
      vertex 7.28969 6.84547 5
      vertex 3.64484 3.42274 5
      vertex 4.04508 2.93893 5
    endloop
  endfacet
  facet normal 0 0 1
    outer loop
      vertex 6.37424 7.70513 5
      vertex 3.18712 3.85257 5
      vertex 3.64484 3.42274 5
    endloop
  endfacet
  facet normal 0 0 1
    outer loop
      vertex 2.1289 4.52413 5
      vertex 4.25779 9.04827 5
      vertex 3.09017 9.51056 5
    endloop
  endfacet
  facet normal 0 0 1
    outer loop
      vertex 5.35827 8.44328 5
      vertex 2.67913 4.22164 5
      vertex 3.18712 3.85257 5
    endloop
  endfacet
  facet normal 0 0 1
    outer loop
      vertex 4.25779 9.04827 5
      vertex 2.1289 4.52413 5
      vertex 2.67913 4.22164 5
    endloop
  endfacet
  facet normal 0 0 1
    outer loop
      vertex 1.54508 4.75528 5
      vertex 3.09017 9.51056 5
      vertex 1.87381 9.82287 5
    endloop
  endfacet
  facet normal 0 0 1
    outer loop
      vertex 3.09017 9.51056 5
      vertex 1.54508 4.75528 5
      vertex 2.1289 4.52413 5
    endloop
  endfacet
  facet normal 0 0 1
    outer loop
      vertex 1.87381 9.82287 5
      vertex 0.936906 4.91144 5
      vertex 1.54508 4.75528 5
    endloop
  endfacet
  facet normal 0 0 1
    outer loop
      vertex 0.627905 9.98027 5
      vertex 0.936906 4.91144 5
      vertex 1.87381 9.82287 5
    endloop
  endfacet
  facet normal 0 0 1
    outer loop
      vertex 0.627905 9.98027 5
      vertex 0.313952 4.99013 5
      vertex 0.936906 4.91144 5
    endloop
  endfacet
  facet normal 0 0 1
    outer loop
      vertex 0.627905 9.98027 5
      vertex -0.313952 4.99013 5
      vertex 0.313952 4.99013 5
    endloop
  endfacet
  facet normal -0 0 1
    outer loop
      vertex -0.627905 9.98027 5
      vertex -0.313952 4.99013 5
      vertex 0.627905 9.98027 5
    endloop
  endfacet
  facet normal 0 0 1
    outer loop
      vertex -0.627905 9.98027 5
      vertex -0.936906 4.91144 5
      vertex -0.313952 4.99013 5
    endloop
  endfacet
  facet normal -0 0 1
    outer loop
      vertex -1.87381 9.82287 5
      vertex -0.936906 4.91144 5
      vertex -0.627905 9.98027 5
    endloop
  endfacet
  facet normal 0 0 1
    outer loop
      vertex -0.936906 4.91144 5
      vertex -1.87381 9.82287 5
      vertex -1.54508 4.75528 5
    endloop
  endfacet
  facet normal -0 0 1
    outer loop
      vertex -3.09017 9.51056 5
      vertex -1.54508 4.75528 5
      vertex -1.87381 9.82287 5
    endloop
  endfacet
  facet normal 0 0 1
    outer loop
      vertex -1.54508 4.75528 5
      vertex -3.09017 9.51056 5
      vertex -2.1289 4.52413 5
    endloop
  endfacet
  facet normal -0 0 1
    outer loop
      vertex -4.25779 9.04827 5
      vertex -2.1289 4.52413 5
      vertex -3.09017 9.51056 5
    endloop
  endfacet
  facet normal 0 0 1
    outer loop
      vertex -2.1289 4.52413 5
      vertex -4.25779 9.04827 5
      vertex -2.67913 4.22164 5
    endloop
  endfacet
  facet normal -0 0 1
    outer loop
      vertex -5.35827 8.44328 5
      vertex -2.67913 4.22164 5
      vertex -4.25779 9.04827 5
    endloop
  endfacet
  facet normal 0 0 1
    outer loop
      vertex -2.67913 4.22164 5
      vertex -5.35827 8.44328 5
      vertex -3.18712 3.85257 5
    endloop
  endfacet
  facet normal -0 0 1
    outer loop
      vertex -6.37424 7.70513 5
      vertex -3.18712 3.85257 5
      vertex -5.35827 8.44328 5
    endloop
  endfacet
  facet normal 0 0 1
    outer loop
      vertex -3.18712 3.85257 5
      vertex -6.37424 7.70513 5
      vertex -3.64484 3.42274 5
    endloop
  endfacet
  facet normal -0 0 1
    outer loop
      vertex -7.28969 6.84547 5
      vertex -3.64484 3.42274 5
      vertex -6.37424 7.70513 5
    endloop
  endfacet
  facet normal 0 0 1
    outer loop
      vertex -3.64484 3.42274 5
      vertex -7.28969 6.84547 5
      vertex -4.04508 2.93893 5
    endloop
  endfacet
  facet normal -0 0 1
    outer loop
      vertex -8.09017 5.87785 5
      vertex -4.04508 2.93893 5
      vertex -7.28969 6.84547 5
    endloop
  endfacet
  facet normal -0 0 1
    outer loop
      vertex -8.76307 4.81754 5
      vertex -4.38153 2.40877 5
      vertex -8.09017 5.87785 5
    endloop
  endfacet
  facet normal 0 0 1
    outer loop
      vertex -4.04508 2.93893 5
      vertex -8.09017 5.87785 5
      vertex -4.38153 2.40877 5
    endloop
  endfacet
  facet normal 0 0 1
    outer loop
      vertex 8.76307 -4.81754 5
      vertex 4.38153 -2.40877 5
      vertex 8.09017 -5.87785 5
    endloop
  endfacet
  facet normal -0 0 1
    outer loop
      vertex 4.04508 -2.93893 5
      vertex 8.09017 -5.87785 5
      vertex 4.38153 -2.40877 5
    endloop
  endfacet
  facet normal 0 0 1
    outer loop
      vertex 8.09017 -5.87785 5
      vertex 4.04508 -2.93893 5
      vertex 7.28969 -6.84547 5
    endloop
  endfacet
  facet normal -0 0 1
    outer loop
      vertex 3.64484 -3.42274 5
      vertex 7.28969 -6.84547 5
      vertex 4.04508 -2.93893 5
    endloop
  endfacet
  facet normal 0 0 1
    outer loop
      vertex 7.28969 -6.84547 5
      vertex 3.64484 -3.42274 5
      vertex 6.37424 -7.70513 5
    endloop
  endfacet
  facet normal -0 0 1
    outer loop
      vertex 3.18712 -3.85257 5
      vertex 6.37424 -7.70513 5
      vertex 3.64484 -3.42274 5
    endloop
  endfacet
  facet normal 0 0 1
    outer loop
      vertex 6.37424 -7.70513 5
      vertex 3.18712 -3.85257 5
      vertex 5.35827 -8.44328 5
    endloop
  endfacet
  facet normal -0 0 1
    outer loop
      vertex 2.67913 -4.22164 5
      vertex 5.35827 -8.44328 5
      vertex 3.18712 -3.85257 5
    endloop
  endfacet
  facet normal 0 0 1
    outer loop
      vertex 5.35827 -8.44328 5
      vertex 2.67913 -4.22164 5
      vertex 4.25779 -9.04827 5
    endloop
  endfacet
  facet normal -0 0 1
    outer loop
      vertex 2.1289 -4.52413 5
      vertex 4.25779 -9.04827 5
      vertex 2.67913 -4.22164 5
    endloop
  endfacet
  facet normal 0 0 1
    outer loop
      vertex 4.25779 -9.04827 5
      vertex 2.1289 -4.52413 5
      vertex 3.09017 -9.51056 5
    endloop
  endfacet
  facet normal -0 0 1
    outer loop
      vertex 1.54508 -4.75528 5
      vertex 3.09017 -9.51056 5
      vertex 2.1289 -4.52413 5
    endloop
  endfacet
  facet normal 0 0 1
    outer loop
      vertex 3.09017 -9.51056 5
      vertex 1.54508 -4.75528 5
      vertex 1.87381 -9.82287 5
    endloop
  endfacet
  facet normal -0 0 1
    outer loop
      vertex 0.936906 -4.91144 5
      vertex 1.87381 -9.82287 5
      vertex 1.54508 -4.75528 5
    endloop
  endfacet
  facet normal 0 0 1
    outer loop
      vertex 0.936906 -4.91144 5
      vertex 0.627905 -9.98027 5
      vertex 1.87381 -9.82287 5
    endloop
  endfacet
  facet normal -0 0 1
    outer loop
      vertex 0.313952 -4.99013 5
      vertex 0.627905 -9.98027 5
      vertex 0.936906 -4.91144 5
    endloop
  endfacet
  facet normal -0 0 1
    outer loop
      vertex -0.313952 -4.99013 5
      vertex 0.627905 -9.98027 5
      vertex 0.313952 -4.99013 5
    endloop
  endfacet
  facet normal 0 0 1
    outer loop
      vertex -0.313952 -4.99013 5
      vertex -0.627905 -9.98027 5
      vertex 0.627905 -9.98027 5
    endloop
  endfacet
  facet normal 0 0 1
    outer loop
      vertex -0.936906 -4.91144 5
      vertex -0.627905 -9.98027 5
      vertex -0.313952 -4.99013 5
    endloop
  endfacet
  facet normal 0 0 1
    outer loop
      vertex -1.87381 -9.82287 5
      vertex -0.936906 -4.91144 5
      vertex -1.54508 -4.75528 5
    endloop
  endfacet
  facet normal 0 0 1
    outer loop
      vertex -0.936906 -4.91144 5
      vertex -1.87381 -9.82287 5
      vertex -0.627905 -9.98027 5
    endloop
  endfacet
  facet normal 0 0 1
    outer loop
      vertex -3.09017 -9.51056 5
      vertex -1.54508 -4.75528 5
      vertex -2.1289 -4.52413 5
    endloop
  endfacet
  facet normal 0 0 1
    outer loop
      vertex -4.25779 -9.04827 5
      vertex -2.1289 -4.52413 5
      vertex -2.67913 -4.22164 5
    endloop
  endfacet
  facet normal 0 0 1
    outer loop
      vertex -1.54508 -4.75528 5
      vertex -3.09017 -9.51056 5
      vertex -1.87381 -9.82287 5
    endloop
  endfacet
  facet normal 0 0 1
    outer loop
      vertex -5.35827 -8.44328 5
      vertex -2.67913 -4.22164 5
      vertex -3.18712 -3.85257 5
    endloop
  endfacet
  facet normal 0 0 1
    outer loop
      vertex -6.37424 -7.70513 5
      vertex -3.18712 -3.85257 5
      vertex -3.64484 -3.42274 5
    endloop
  endfacet
  facet normal 0 0 1
    outer loop
      vertex -7.28969 -6.84547 5
      vertex -3.64484 -3.42274 5
      vertex -4.04508 -2.93893 5
    endloop
  endfacet
  facet normal 0 0 1
    outer loop
      vertex -2.1289 -4.52413 5
      vertex -4.25779 -9.04827 5
      vertex -3.09017 -9.51056 5
    endloop
  endfacet
  facet normal 0 0 1
    outer loop
      vertex -8.09017 -5.87785 5
      vertex -4.04508 -2.93893 5
      vertex -4.38153 -2.40877 5
    endloop
  endfacet
  facet normal 0 0 1
    outer loop
      vertex -8.76307 -4.81754 5
      vertex -4.38153 -2.40877 5
      vertex -4.64888 -1.84062 5
    endloop
  endfacet
  facet normal 0 0 1
    outer loop
      vertex -9.29776 -3.68124 5
      vertex -4.64888 -1.84062 5
      vertex -4.84292 -1.24345 5
    endloop
  endfacet
  facet normal 0 0 1
    outer loop
      vertex -9.68583 -2.4869 5
      vertex -4.84292 -1.24345 5
      vertex -4.96057 -0.626666 5
    endloop
  endfacet
  facet normal 0 0 1
    outer loop
      vertex -2.67913 -4.22164 5
      vertex -5.35827 -8.44328 5
      vertex -4.25779 -9.04827 5
    endloop
  endfacet
  facet normal 0 0 1
    outer loop
      vertex -9.92115 -1.25333 5
      vertex -4.96057 -0.626666 5
      vertex -5 0 5
    endloop
  endfacet
  facet normal 0 0 1
    outer loop
      vertex -4.38153 2.40877 5
      vertex -8.76307 4.81754 5
      vertex -4.64888 1.84062 5
    endloop
  endfacet
  facet normal -0 0 1
    outer loop
      vertex -9.29776 3.68124 5
      vertex -4.64888 1.84062 5
      vertex -8.76307 4.81754 5
    endloop
  endfacet
  facet normal 0 0 1
    outer loop
      vertex -3.18712 -3.85257 5
      vertex -6.37424 -7.70513 5
      vertex -5.35827 -8.44328 5
    endloop
  endfacet
  facet normal 0 0 1
    outer loop
      vertex -4.64888 1.84062 5
      vertex -9.29776 3.68124 5
      vertex -4.84292 1.24345 5
    endloop
  endfacet
  facet normal 0 0 1
    outer loop
      vertex -3.64484 -3.42274 5
      vertex -7.28969 -6.84547 5
      vertex -6.37424 -7.70513 5
    endloop
  endfacet
  facet normal -0 0 1
    outer loop
      vertex -9.68583 2.4869 5
      vertex -4.84292 1.24345 5
      vertex -9.29776 3.68124 5
    endloop
  endfacet
  facet normal 0 0 1
    outer loop
      vertex -4.04508 -2.93893 5
      vertex -8.09017 -5.87785 5
      vertex -7.28969 -6.84547 5
    endloop
  endfacet
  facet normal 0 0 1
    outer loop
      vertex -4.84292 1.24345 5
      vertex -9.68583 2.4869 5
      vertex -4.96057 0.626666 5
    endloop
  endfacet
  facet normal 0 0 1
    outer loop
      vertex -4.38153 -2.40877 5
      vertex -8.76307 -4.81754 5
      vertex -8.09017 -5.87785 5
    endloop
  endfacet
  facet normal -0 0 1
    outer loop
      vertex -9.92115 1.25333 5
      vertex -4.96057 0.626666 5
      vertex -9.68583 2.4869 5
    endloop
  endfacet
  facet normal 0 0 1
    outer loop
      vertex -4.64888 -1.84062 5
      vertex -9.29776 -3.68124 5
      vertex -8.76307 -4.81754 5
    endloop
  endfacet
  facet normal 0 0 1
    outer loop
      vertex -4.96057 0.626666 5
      vertex -9.92115 1.25333 5
      vertex -5 0 5
    endloop
  endfacet
  facet normal 0 0 1
    outer loop
      vertex -4.84292 -1.24345 5
      vertex -9.68583 -2.4869 5
      vertex -9.29776 -3.68124 5
    endloop
  endfacet
  facet normal 0 0 1
    outer loop
      vertex -10 0 5
      vertex -5 0 5
      vertex -9.92115 1.25333 5
    endloop
  endfacet
  facet normal 0 0 1
    outer loop
      vertex -4.96057 -0.626666 5
      vertex -9.92115 -1.25333 5
      vertex -9.68583 -2.4869 5
    endloop
  endfacet
  facet normal 0 0 1
    outer loop
      vertex -5 0 5
      vertex -10 0 5
      vertex -9.92115 -1.25333 5
    endloop
  endfacet
  facet normal -0.982287 0.187381 0
    outer loop
      vertex -9.92115 1.25333 0
      vertex -9.68583 2.4869 5
      vertex -9.68583 2.4869 0
    endloop
  endfacet
  facet normal -0.982287 0.187381 0
    outer loop
      vertex -9.68583 2.4869 5
      vertex -9.92115 1.25333 0
      vertex -9.92115 1.25333 5
    endloop
  endfacet
  facet normal -0.844328 0.535826 0
    outer loop
      vertex -8.76307 4.81754 0
      vertex -8.09017 5.87785 5
      vertex -8.09017 5.87785 0
    endloop
  endfacet
  facet normal -0.844328 0.535826 0
    outer loop
      vertex -8.09017 5.87785 5
      vertex -8.76307 4.81754 0
      vertex -8.76307 4.81754 5
    endloop
  endfacet
  facet normal -0.24869 0.968583 0
    outer loop
      vertex -1.87381 9.82287 0
      vertex -3.09017 9.51056 5
      vertex -1.87381 9.82287 5
    endloop
  endfacet
  facet normal -0.24869 0.968583 0
    outer loop
      vertex -3.09017 9.51056 5
      vertex -1.87381 9.82287 0
      vertex -3.09017 9.51056 0
    endloop
  endfacet
  facet normal 0.481754 -0.876307 0
    outer loop
      vertex 4.25779 -9.04827 0
      vertex 5.35827 -8.44328 5
      vertex 4.25779 -9.04827 5
    endloop
  endfacet
  facet normal 0.481754 -0.876307 0
    outer loop
      vertex 5.35827 -8.44328 5
      vertex 4.25779 -9.04827 0
      vertex 5.35827 -8.44328 0
    endloop
  endfacet
  facet normal 0.770513 -0.637424 0
    outer loop
      vertex 7.28969 -6.84547 5
      vertex 8.09017 -5.87785 0
      vertex 8.09017 -5.87785 5
    endloop
  endfacet
  facet normal 0.770513 -0.637424 0
    outer loop
      vertex 8.09017 -5.87785 0
      vertex 7.28969 -6.84547 5
      vertex 7.28969 -6.84547 0
    endloop
  endfacet
  facet normal 0.844328 -0.535826 0
    outer loop
      vertex 8.09017 -5.87785 5
      vertex 8.76307 -4.81754 0
      vertex 8.76307 -4.81754 5
    endloop
  endfacet
  facet normal 0.844328 -0.535826 0
    outer loop
      vertex 8.76307 -4.81754 0
      vertex 8.09017 -5.87785 5
      vertex 8.09017 -5.87785 0
    endloop
  endfacet
  facet normal -0.481754 -0.876307 0
    outer loop
      vertex -5.35827 -8.44328 0
      vertex -4.25779 -9.04827 5
      vertex -5.35827 -8.44328 5
    endloop
  endfacet
  facet normal -0.481754 -0.876307 -0
    outer loop
      vertex -4.25779 -9.04827 5
      vertex -5.35827 -8.44328 0
      vertex -4.25779 -9.04827 0
    endloop
  endfacet
  facet normal -0.998027 -0.062791 0
    outer loop
      vertex -9.92115 -1.25333 0
      vertex -10 0 5
      vertex -10 0 0
    endloop
  endfacet
  facet normal -0.998027 -0.062791 0
    outer loop
      vertex -10 0 5
      vertex -9.92115 -1.25333 0
      vertex -9.92115 -1.25333 5
    endloop
  endfacet
  facet normal -0.951057 -0.309017 0
    outer loop
      vertex -9.29776 -3.68124 0
      vertex -9.68583 -2.4869 5
      vertex -9.68583 -2.4869 0
    endloop
  endfacet
  facet normal -0.951057 -0.309017 0
    outer loop
      vertex -9.68583 -2.4869 5
      vertex -9.29776 -3.68124 0
      vertex -9.29776 -3.68124 5
    endloop
  endfacet
  facet normal -0.770513 -0.637424 0
    outer loop
      vertex -7.28969 -6.84547 0
      vertex -8.09017 -5.87785 5
      vertex -8.09017 -5.87785 0
    endloop
  endfacet
  facet normal -0.770513 -0.637424 0
    outer loop
      vertex -8.09017 -5.87785 5
      vertex -7.28969 -6.84547 0
      vertex -7.28969 -6.84547 5
    endloop
  endfacet
  facet normal -0.904827 -0.425779 0
    outer loop
      vertex -8.76307 -4.81754 0
      vertex -9.29776 -3.68124 5
      vertex -9.29776 -3.68124 0
    endloop
  endfacet
  facet normal -0.904827 -0.425779 0
    outer loop
      vertex -9.29776 -3.68124 5
      vertex -8.76307 -4.81754 0
      vertex -8.76307 -4.81754 5
    endloop
  endfacet
  facet normal 0.684547 -0.728969 0
    outer loop
      vertex 6.37424 -7.70513 0
      vertex 7.28969 -6.84547 5
      vertex 6.37424 -7.70513 5
    endloop
  endfacet
  facet normal 0.684547 -0.728969 0
    outer loop
      vertex 7.28969 -6.84547 5
      vertex 6.37424 -7.70513 0
      vertex 7.28969 -6.84547 0
    endloop
  endfacet
  facet normal 0.587786 -0.809017 0
    outer loop
      vertex 5.35827 -8.44328 0
      vertex 6.37424 -7.70513 5
      vertex 5.35827 -8.44328 5
    endloop
  endfacet
  facet normal 0.587786 -0.809017 0
    outer loop
      vertex 6.37424 -7.70513 5
      vertex 5.35827 -8.44328 0
      vertex 6.37424 -7.70513 0
    endloop
  endfacet
  facet normal 0.904827 -0.425779 0
    outer loop
      vertex 8.76307 -4.81754 5
      vertex 9.29776 -3.68124 0
      vertex 9.29776 -3.68124 5
    endloop
  endfacet
  facet normal 0.904827 -0.425779 0
    outer loop
      vertex 9.29776 -3.68124 0
      vertex 8.76307 -4.81754 5
      vertex 8.76307 -4.81754 0
    endloop
  endfacet
  facet normal -0.684547 -0.728969 0
    outer loop
      vertex -7.28969 -6.84547 0
      vertex -6.37424 -7.70513 5
      vertex -7.28969 -6.84547 5
    endloop
  endfacet
  facet normal -0.684547 -0.728969 -0
    outer loop
      vertex -6.37424 -7.70513 5
      vertex -7.28969 -6.84547 0
      vertex -6.37424 -7.70513 0
    endloop
  endfacet
  facet normal 0 -1 0
    outer loop
      vertex -0.627905 -9.98027 0
      vertex 0.627905 -9.98027 5
      vertex -0.627905 -9.98027 5
    endloop
  endfacet
  facet normal 0 -1 -0
    outer loop
      vertex 0.627905 -9.98027 5
      vertex -0.627905 -9.98027 0
      vertex 0.627905 -9.98027 0
    endloop
  endfacet
  facet normal -0.587786 -0.809017 0
    outer loop
      vertex -6.37424 -7.70513 0
      vertex -5.35827 -8.44328 5
      vertex -6.37424 -7.70513 5
    endloop
  endfacet
  facet normal -0.587786 -0.809017 -0
    outer loop
      vertex -5.35827 -8.44328 5
      vertex -6.37424 -7.70513 0
      vertex -5.35827 -8.44328 0
    endloop
  endfacet
  facet normal 0 0 -1
    outer loop
      vertex 5 0 0
      vertex 10 0 0
      vertex 9.92115 -1.25333 0
    endloop
  endfacet
  facet normal 0 0 -1
    outer loop
      vertex 4.96057 -0.626666 0
      vertex 9.92115 -1.25333 0
      vertex 9.68583 -2.4869 0
    endloop
  endfacet
  facet normal 0 0 -1
    outer loop
      vertex 10 0 0
      vertex 5 0 0
      vertex 9.92115 1.25333 0
    endloop
  endfacet
  facet normal 0 0 -1
    outer loop
      vertex 4.84292 -1.24345 0
      vertex 9.68583 -2.4869 0
      vertex 9.29776 -3.68124 0
    endloop
  endfacet
  facet normal 0 0 -1
    outer loop
      vertex 4.96057 0.626666 0
      vertex 9.92115 1.25333 0
      vertex 5 0 0
    endloop
  endfacet
  facet normal 0 0 -1
    outer loop
      vertex 4.64888 -1.84062 0
      vertex 9.29776 -3.68124 0
      vertex 8.76307 -4.81754 0
    endloop
  endfacet
  facet normal -0 0 -1
    outer loop
      vertex 9.92115 1.25333 0
      vertex 4.96057 0.626666 0
      vertex 9.68583 2.4869 0
    endloop
  endfacet
  facet normal 0 0 -1
    outer loop
      vertex 4.38153 -2.40877 0
      vertex 8.76307 -4.81754 0
      vertex 8.09017 -5.87785 0
    endloop
  endfacet
  facet normal 0 0 -1
    outer loop
      vertex 4.84292 1.24345 0
      vertex 9.68583 2.4869 0
      vertex 4.96057 0.626666 0
    endloop
  endfacet
  facet normal 0 0 -1
    outer loop
      vertex 4.04508 -2.93893 0
      vertex 8.09017 -5.87785 0
      vertex 7.28969 -6.84547 0
    endloop
  endfacet
  facet normal -0 0 -1
    outer loop
      vertex 9.68583 2.4869 0
      vertex 4.84292 1.24345 0
      vertex 9.29776 3.68124 0
    endloop
  endfacet
  facet normal 0 0 -1
    outer loop
      vertex 3.64484 -3.42274 0
      vertex 7.28969 -6.84547 0
      vertex 6.37424 -7.70513 0
    endloop
  endfacet
  facet normal 0 0 -1
    outer loop
      vertex 4.64888 1.84062 0
      vertex 9.29776 3.68124 0
      vertex 4.84292 1.24345 0
    endloop
  endfacet
  facet normal 0 0 -1
    outer loop
      vertex 3.18712 -3.85257 0
      vertex 6.37424 -7.70513 0
      vertex 5.35827 -8.44328 0
    endloop
  endfacet
  facet normal -0 0 -1
    outer loop
      vertex 9.29776 3.68124 0
      vertex 4.64888 1.84062 0
      vertex 8.76307 4.81754 0
    endloop
  endfacet
  facet normal 0 0 -1
    outer loop
      vertex 4.38153 2.40877 0
      vertex 8.76307 4.81754 0
      vertex 4.64888 1.84062 0
    endloop
  endfacet
  facet normal 0 0 -1
    outer loop
      vertex 9.92115 -1.25333 0
      vertex 4.96057 -0.626666 0
      vertex 5 0 0
    endloop
  endfacet
  facet normal 0 0 -1
    outer loop
      vertex 9.68583 -2.4869 0
      vertex 4.84292 -1.24345 0
      vertex 4.96057 -0.626666 0
    endloop
  endfacet
  facet normal 0 0 -1
    outer loop
      vertex 9.29776 -3.68124 0
      vertex 4.64888 -1.84062 0
      vertex 4.84292 -1.24345 0
    endloop
  endfacet
  facet normal 0 0 -1
    outer loop
      vertex 8.76307 -4.81754 0
      vertex 4.38153 -2.40877 0
      vertex 4.64888 -1.84062 0
    endloop
  endfacet
  facet normal 0 0 -1
    outer loop
      vertex 2.67913 -4.22164 0
      vertex 5.35827 -8.44328 0
      vertex 4.25779 -9.04827 0
    endloop
  endfacet
  facet normal 0 0 -1
    outer loop
      vertex 8.09017 -5.87785 0
      vertex 4.04508 -2.93893 0
      vertex 4.38153 -2.40877 0
    endloop
  endfacet
  facet normal 0 0 -1
    outer loop
      vertex 7.28969 -6.84547 0
      vertex 3.64484 -3.42274 0
      vertex 4.04508 -2.93893 0
    endloop
  endfacet
  facet normal 0 0 -1
    outer loop
      vertex 6.37424 -7.70513 0
      vertex 3.18712 -3.85257 0
      vertex 3.64484 -3.42274 0
    endloop
  endfacet
  facet normal 0 0 -1
    outer loop
      vertex 2.1289 -4.52413 0
      vertex 4.25779 -9.04827 0
      vertex 3.09017 -9.51056 0
    endloop
  endfacet
  facet normal 0 0 -1
    outer loop
      vertex 5.35827 -8.44328 0
      vertex 2.67913 -4.22164 0
      vertex 3.18712 -3.85257 0
    endloop
  endfacet
  facet normal 0 0 -1
    outer loop
      vertex 4.25779 -9.04827 0
      vertex 2.1289 -4.52413 0
      vertex 2.67913 -4.22164 0
    endloop
  endfacet
  facet normal 0 0 -1
    outer loop
      vertex 1.54508 -4.75528 0
      vertex 3.09017 -9.51056 0
      vertex 1.87381 -9.82287 0
    endloop
  endfacet
  facet normal 0 0 -1
    outer loop
      vertex 3.09017 -9.51056 0
      vertex 1.54508 -4.75528 0
      vertex 2.1289 -4.52413 0
    endloop
  endfacet
  facet normal 0 0 -1
    outer loop
      vertex 1.87381 -9.82287 0
      vertex 0.936906 -4.91144 0
      vertex 1.54508 -4.75528 0
    endloop
  endfacet
  facet normal 0 0 -1
    outer loop
      vertex 0.627905 -9.98027 0
      vertex 0.936906 -4.91144 0
      vertex 1.87381 -9.82287 0
    endloop
  endfacet
  facet normal 0 0 -1
    outer loop
      vertex 0.627905 -9.98027 0
      vertex 0.313952 -4.99013 0
      vertex 0.936906 -4.91144 0
    endloop
  endfacet
  facet normal 0 0 -1
    outer loop
      vertex 0.627905 -9.98027 0
      vertex -0.313952 -4.99013 0
      vertex 0.313952 -4.99013 0
    endloop
  endfacet
  facet normal 0 0 -1
    outer loop
      vertex -0.627905 -9.98027 0
      vertex -0.313952 -4.99013 0
      vertex 0.627905 -9.98027 0
    endloop
  endfacet
  facet normal 0 0 -1
    outer loop
      vertex -0.627905 -9.98027 0
      vertex -0.936906 -4.91144 0
      vertex -0.313952 -4.99013 0
    endloop
  endfacet
  facet normal 0 0 -1
    outer loop
      vertex -1.87381 -9.82287 0
      vertex -0.936906 -4.91144 0
      vertex -0.627905 -9.98027 0
    endloop
  endfacet
  facet normal -0 0 -1
    outer loop
      vertex -0.936906 -4.91144 0
      vertex -1.87381 -9.82287 0
      vertex -1.54508 -4.75528 0
    endloop
  endfacet
  facet normal 0 0 -1
    outer loop
      vertex -3.09017 -9.51056 0
      vertex -1.54508 -4.75528 0
      vertex -1.87381 -9.82287 0
    endloop
  endfacet
  facet normal -0 0 -1
    outer loop
      vertex -1.54508 -4.75528 0
      vertex -3.09017 -9.51056 0
      vertex -2.1289 -4.52413 0
    endloop
  endfacet
  facet normal 0 0 -1
    outer loop
      vertex -4.25779 -9.04827 0
      vertex -2.1289 -4.52413 0
      vertex -3.09017 -9.51056 0
    endloop
  endfacet
  facet normal -0 0 -1
    outer loop
      vertex -2.1289 -4.52413 0
      vertex -4.25779 -9.04827 0
      vertex -2.67913 -4.22164 0
    endloop
  endfacet
  facet normal 0 0 -1
    outer loop
      vertex -5.35827 -8.44328 0
      vertex -2.67913 -4.22164 0
      vertex -4.25779 -9.04827 0
    endloop
  endfacet
  facet normal -0 0 -1
    outer loop
      vertex -2.67913 -4.22164 0
      vertex -5.35827 -8.44328 0
      vertex -3.18712 -3.85257 0
    endloop
  endfacet
  facet normal 0 0 -1
    outer loop
      vertex -6.37424 -7.70513 0
      vertex -3.18712 -3.85257 0
      vertex -5.35827 -8.44328 0
    endloop
  endfacet
  facet normal -0 0 -1
    outer loop
      vertex -3.18712 -3.85257 0
      vertex -6.37424 -7.70513 0
      vertex -3.64484 -3.42274 0
    endloop
  endfacet
  facet normal 0 0 -1
    outer loop
      vertex -7.28969 -6.84547 0
      vertex -3.64484 -3.42274 0
      vertex -6.37424 -7.70513 0
    endloop
  endfacet
  facet normal -0 0 -1
    outer loop
      vertex -3.64484 -3.42274 0
      vertex -7.28969 -6.84547 0
      vertex -4.04508 -2.93893 0
    endloop
  endfacet
  facet normal 0 0 -1
    outer loop
      vertex -8.09017 -5.87785 0
      vertex -4.04508 -2.93893 0
      vertex -7.28969 -6.84547 0
    endloop
  endfacet
  facet normal 0 0 -1
    outer loop
      vertex -8.76307 -4.81754 0
      vertex -4.38153 -2.40877 0
      vertex -8.09017 -5.87785 0
    endloop
  endfacet
  facet normal -0 0 -1
    outer loop
      vertex -4.04508 -2.93893 0
      vertex -8.09017 -5.87785 0
      vertex -4.38153 -2.40877 0
    endloop
  endfacet
  facet normal -0 0 -1
    outer loop
      vertex 8.76307 4.81754 0
      vertex 4.38153 2.40877 0
      vertex 8.09017 5.87785 0
    endloop
  endfacet
  facet normal 0 0 -1
    outer loop
      vertex 4.04508 2.93893 0
      vertex 8.09017 5.87785 0
      vertex 4.38153 2.40877 0
    endloop
  endfacet
  facet normal -0 0 -1
    outer loop
      vertex 8.09017 5.87785 0
      vertex 4.04508 2.93893 0
      vertex 7.28969 6.84547 0
    endloop
  endfacet
  facet normal 0 0 -1
    outer loop
      vertex 3.64484 3.42274 0
      vertex 7.28969 6.84547 0
      vertex 4.04508 2.93893 0
    endloop
  endfacet
  facet normal -0 0 -1
    outer loop
      vertex 7.28969 6.84547 0
      vertex 3.64484 3.42274 0
      vertex 6.37424 7.70513 0
    endloop
  endfacet
  facet normal 0 0 -1
    outer loop
      vertex 3.18712 3.85257 0
      vertex 6.37424 7.70513 0
      vertex 3.64484 3.42274 0
    endloop
  endfacet
  facet normal -0 0 -1
    outer loop
      vertex 6.37424 7.70513 0
      vertex 3.18712 3.85257 0
      vertex 5.35827 8.44328 0
    endloop
  endfacet
  facet normal 0 0 -1
    outer loop
      vertex 2.67913 4.22164 0
      vertex 5.35827 8.44328 0
      vertex 3.18712 3.85257 0
    endloop
  endfacet
  facet normal -0 0 -1
    outer loop
      vertex 5.35827 8.44328 0
      vertex 2.67913 4.22164 0
      vertex 4.25779 9.04827 0
    endloop
  endfacet
  facet normal 0 0 -1
    outer loop
      vertex 2.1289 4.52413 0
      vertex 4.25779 9.04827 0
      vertex 2.67913 4.22164 0
    endloop
  endfacet
  facet normal -0 0 -1
    outer loop
      vertex 4.25779 9.04827 0
      vertex 2.1289 4.52413 0
      vertex 3.09017 9.51056 0
    endloop
  endfacet
  facet normal 0 0 -1
    outer loop
      vertex 1.54508 4.75528 0
      vertex 3.09017 9.51056 0
      vertex 2.1289 4.52413 0
    endloop
  endfacet
  facet normal -0 0 -1
    outer loop
      vertex 3.09017 9.51056 0
      vertex 1.54508 4.75528 0
      vertex 1.87381 9.82287 0
    endloop
  endfacet
  facet normal 0 0 -1
    outer loop
      vertex 0.936906 4.91144 0
      vertex 1.87381 9.82287 0
      vertex 1.54508 4.75528 0
    endloop
  endfacet
  facet normal 0 0 -1
    outer loop
      vertex 0.936906 4.91144 0
      vertex 0.627905 9.98027 0
      vertex 1.87381 9.82287 0
    endloop
  endfacet
  facet normal 0 0 -1
    outer loop
      vertex 0.313952 4.99013 0
      vertex 0.627905 9.98027 0
      vertex 0.936906 4.91144 0
    endloop
  endfacet
  facet normal 0 0 -1
    outer loop
      vertex -0.313952 4.99013 0
      vertex 0.627905 9.98027 0
      vertex 0.313952 4.99013 0
    endloop
  endfacet
  facet normal 0 0 -1
    outer loop
      vertex -0.313952 4.99013 0
      vertex -0.627905 9.98027 0
      vertex 0.627905 9.98027 0
    endloop
  endfacet
  facet normal 0 0 -1
    outer loop
      vertex -0.936906 4.91144 0
      vertex -0.627905 9.98027 0
      vertex -0.313952 4.99013 0
    endloop
  endfacet
  facet normal 0 0 -1
    outer loop
      vertex -1.87381 9.82287 0
      vertex -0.936906 4.91144 0
      vertex -1.54508 4.75528 0
    endloop
  endfacet
  facet normal 0 0 -1
    outer loop
      vertex -0.936906 4.91144 0
      vertex -1.87381 9.82287 0
      vertex -0.627905 9.98027 0
    endloop
  endfacet
  facet normal 0 0 -1
    outer loop
      vertex -3.09017 9.51056 0
      vertex -1.54508 4.75528 0
      vertex -2.1289 4.52413 0
    endloop
  endfacet
  facet normal 0 0 -1
    outer loop
      vertex -4.25779 9.04827 0
      vertex -2.1289 4.52413 0
      vertex -2.67913 4.22164 0
    endloop
  endfacet
  facet normal 0 0 -1
    outer loop
      vertex -1.54508 4.75528 0
      vertex -3.09017 9.51056 0
      vertex -1.87381 9.82287 0
    endloop
  endfacet
  facet normal 0 0 -1
    outer loop
      vertex -5.35827 8.44328 0
      vertex -2.67913 4.22164 0
      vertex -3.18712 3.85257 0
    endloop
  endfacet
  facet normal 0 0 -1
    outer loop
      vertex -6.37424 7.70513 0
      vertex -3.18712 3.85257 0
      vertex -3.64484 3.42274 0
    endloop
  endfacet
  facet normal 0 0 -1
    outer loop
      vertex -7.28969 6.84547 0
      vertex -3.64484 3.42274 0
      vertex -4.04508 2.93893 0
    endloop
  endfacet
  facet normal 0 0 -1
    outer loop
      vertex -2.1289 4.52413 0
      vertex -4.25779 9.04827 0
      vertex -3.09017 9.51056 0
    endloop
  endfacet
  facet normal 0 0 -1
    outer loop
      vertex -8.09017 5.87785 0
      vertex -4.04508 2.93893 0
      vertex -4.38153 2.40877 0
    endloop
  endfacet
  facet normal 0 0 -1
    outer loop
      vertex -8.76307 4.81754 0
      vertex -4.38153 2.40877 0
      vertex -4.64888 1.84062 0
    endloop
  endfacet
  facet normal 0 0 -1
    outer loop
      vertex -9.29776 3.68124 0
      vertex -4.64888 1.84062 0
      vertex -4.84292 1.24345 0
    endloop
  endfacet
  facet normal 0 0 -1
    outer loop
      vertex -9.68583 2.4869 0
      vertex -4.84292 1.24345 0
      vertex -4.96057 0.626666 0
    endloop
  endfacet
  facet normal 0 0 -1
    outer loop
      vertex -2.67913 4.22164 0
      vertex -5.35827 8.44328 0
      vertex -4.25779 9.04827 0
    endloop
  endfacet
  facet normal 0 0 -1
    outer loop
      vertex -9.92115 1.25333 0
      vertex -4.96057 0.626666 0
      vertex -5 0 0
    endloop
  endfacet
  facet normal -0 0 -1
    outer loop
      vertex -4.38153 -2.40877 0
      vertex -8.76307 -4.81754 0
      vertex -4.64888 -1.84062 0
    endloop
  endfacet
  facet normal 0 0 -1
    outer loop
      vertex -9.29776 -3.68124 0
      vertex -4.64888 -1.84062 0
      vertex -8.76307 -4.81754 0
    endloop
  endfacet
  facet normal 0 0 -1
    outer loop
      vertex -3.18712 3.85257 0
      vertex -6.37424 7.70513 0
      vertex -5.35827 8.44328 0
    endloop
  endfacet
  facet normal -0 0 -1
    outer loop
      vertex -4.64888 -1.84062 0
      vertex -9.29776 -3.68124 0
      vertex -4.84292 -1.24345 0
    endloop
  endfacet
  facet normal 0 0 -1
    outer loop
      vertex -3.64484 3.42274 0
      vertex -7.28969 6.84547 0
      vertex -6.37424 7.70513 0
    endloop
  endfacet
  facet normal 0 0 -1
    outer loop
      vertex -9.68583 -2.4869 0
      vertex -4.84292 -1.24345 0
      vertex -9.29776 -3.68124 0
    endloop
  endfacet
  facet normal 0 0 -1
    outer loop
      vertex -4.04508 2.93893 0
      vertex -8.09017 5.87785 0
      vertex -7.28969 6.84547 0
    endloop
  endfacet
  facet normal -0 0 -1
    outer loop
      vertex -4.84292 -1.24345 0
      vertex -9.68583 -2.4869 0
      vertex -4.96057 -0.626666 0
    endloop
  endfacet
  facet normal 0 0 -1
    outer loop
      vertex -4.38153 2.40877 0
      vertex -8.76307 4.81754 0
      vertex -8.09017 5.87785 0
    endloop
  endfacet
  facet normal 0 0 -1
    outer loop
      vertex -9.92115 -1.25333 0
      vertex -4.96057 -0.626666 0
      vertex -9.68583 -2.4869 0
    endloop
  endfacet
  facet normal 0 0 -1
    outer loop
      vertex -4.64888 1.84062 0
      vertex -9.29776 3.68124 0
      vertex -8.76307 4.81754 0
    endloop
  endfacet
  facet normal -0 0 -1
    outer loop
      vertex -4.96057 -0.626666 0
      vertex -9.92115 -1.25333 0
      vertex -5 0 0
    endloop
  endfacet
  facet normal 0 0 -1
    outer loop
      vertex -4.84292 1.24345 0
      vertex -9.68583 2.4869 0
      vertex -9.29776 3.68124 0
    endloop
  endfacet
  facet normal 0 0 -1
    outer loop
      vertex -10 0 0
      vertex -5 0 0
      vertex -9.92115 -1.25333 0
    endloop
  endfacet
  facet normal 0 0 -1
    outer loop
      vertex -4.96057 0.626666 0
      vertex -9.92115 1.25333 0
      vertex -9.68583 2.4869 0
    endloop
  endfacet
  facet normal 0 0 -1
    outer loop
      vertex -5 0 0
      vertex -10 0 0
      vertex -9.92115 1.25333 0
    endloop
  endfacet
  facet normal -0.982287 -0.187381 0
    outer loop
      vertex -9.68583 -2.4869 0
      vertex -9.92115 -1.25333 5
      vertex -9.92115 -1.25333 0
    endloop
  endfacet
  facet normal -0.982287 -0.187381 0
    outer loop
      vertex -9.92115 -1.25333 5
      vertex -9.68583 -2.4869 0
      vertex -9.68583 -2.4869 5
    endloop
  endfacet
  facet normal -0.844328 -0.535826 0
    outer loop
      vertex -8.09017 -5.87785 0
      vertex -8.76307 -4.81754 5
      vertex -8.76307 -4.81754 0
    endloop
  endfacet
  facet normal -0.844328 -0.535826 0
    outer loop
      vertex -8.76307 -4.81754 5
      vertex -8.09017 -5.87785 0
      vertex -8.09017 -5.87785 5
    endloop
  endfacet
  facet normal -0.368125 -0.929776 0
    outer loop
      vertex -4.25779 -9.04827 0
      vertex -3.09017 -9.51056 5
      vertex -4.25779 -9.04827 5
    endloop
  endfacet
  facet normal -0.368125 -0.929776 -0
    outer loop
      vertex -3.09017 -9.51056 5
      vertex -4.25779 -9.04827 0
      vertex -3.09017 -9.51056 0
    endloop
  endfacet
  facet normal -0.998027 -0.062791 0
    outer loop
      vertex 5 0 0
      vertex 4.96057 0.626666 5
      vertex 4.96057 0.626666 0
    endloop
  endfacet
  facet normal -0.998027 -0.062791 0
    outer loop
      vertex 4.96057 0.626666 5
      vertex 5 0 0
      vertex 5 0 5
    endloop
  endfacet
  facet normal 0.998027 -0.062791 0
    outer loop
      vertex -5 0 5
      vertex -4.96057 0.626666 0
      vertex -4.96057 0.626666 5
    endloop
  endfacet
  facet normal 0.998027 -0.062791 0
    outer loop
      vertex -4.96057 0.626666 0
      vertex -5 0 5
      vertex -5 0 0
    endloop
  endfacet
  facet normal 0 -1 0
    outer loop
      vertex -0.313952 4.99013 0
      vertex 0.313952 4.99013 5
      vertex -0.313952 4.99013 5
    endloop
  endfacet
  facet normal 0 -1 -0
    outer loop
      vertex 0.313952 4.99013 5
      vertex -0.313952 4.99013 0
      vertex 0.313952 4.99013 0
    endloop
  endfacet
  facet normal 0 1 -0
    outer loop
      vertex 0.313952 -4.99013 0
      vertex -0.313952 -4.99013 5
      vertex 0.313952 -4.99013 5
    endloop
  endfacet
  facet normal 0 1 0
    outer loop
      vertex -0.313952 -4.99013 5
      vertex 0.313952 -4.99013 0
      vertex -0.313952 -4.99013 0
    endloop
  endfacet
  facet normal -0.684547 -0.728969 0
    outer loop
      vertex 3.18712 3.85257 0
      vertex 3.64484 3.42274 5
      vertex 3.18712 3.85257 5
    endloop
  endfacet
  facet normal -0.684547 -0.728969 -0
    outer loop
      vertex 3.64484 3.42274 5
      vertex 3.18712 3.85257 0
      vertex 3.64484 3.42274 0
    endloop
  endfacet
  facet normal 0.684547 -0.728969 0
    outer loop
      vertex -3.64484 3.42274 0
      vertex -3.18712 3.85257 5
      vertex -3.64484 3.42274 5
    endloop
  endfacet
  facet normal 0.684547 -0.728969 0
    outer loop
      vertex -3.18712 3.85257 5
      vertex -3.64484 3.42274 0
      vertex -3.18712 3.85257 0
    endloop
  endfacet
  facet normal 0.368126 -0.929776 0
    outer loop
      vertex -2.1289 4.52413 0
      vertex -1.54508 4.75528 5
      vertex -2.1289 4.52413 5
    endloop
  endfacet
  facet normal 0.368126 -0.929776 0
    outer loop
      vertex -1.54508 4.75528 5
      vertex -2.1289 4.52413 0
      vertex -1.54508 4.75528 0
    endloop
  endfacet
  facet normal -0.904827 -0.425779 0
    outer loop
      vertex 4.64888 1.84062 0
      vertex 4.38153 2.40877 5
      vertex 4.38153 2.40877 0
    endloop
  endfacet
  facet normal -0.904827 -0.425779 0
    outer loop
      vertex 4.38153 2.40877 5
      vertex 4.64888 1.84062 0
      vertex 4.64888 1.84062 5
    endloop
  endfacet
  facet normal -0.982287 -0.187381 0
    outer loop
      vertex 4.96057 0.626666 0
      vertex 4.84292 1.24345 5
      vertex 4.84292 1.24345 0
    endloop
  endfacet
  facet normal -0.982287 -0.187381 0
    outer loop
      vertex 4.84292 1.24345 5
      vertex 4.96057 0.626666 0
      vertex 4.96057 0.626666 5
    endloop
  endfacet
  facet normal -0.368126 -0.929776 0
    outer loop
      vertex 1.54508 4.75528 0
      vertex 2.1289 4.52413 5
      vertex 1.54508 4.75528 5
    endloop
  endfacet
  facet normal -0.368126 -0.929776 -0
    outer loop
      vertex 2.1289 4.52413 5
      vertex 1.54508 4.75528 0
      vertex 2.1289 4.52413 0
    endloop
  endfacet
  facet normal -0.24869 -0.968583 0
    outer loop
      vertex 0.936906 4.91144 0
      vertex 1.54508 4.75528 5
      vertex 0.936906 4.91144 5
    endloop
  endfacet
  facet normal -0.24869 -0.968583 -0
    outer loop
      vertex 1.54508 4.75528 5
      vertex 0.936906 4.91144 0
      vertex 1.54508 4.75528 0
    endloop
  endfacet
  facet normal -0.481754 -0.876307 0
    outer loop
      vertex 2.1289 4.52413 0
      vertex 2.67913 4.22164 5
      vertex 2.1289 4.52413 5
    endloop
  endfacet
  facet normal -0.481754 -0.876307 -0
    outer loop
      vertex 2.67913 4.22164 5
      vertex 2.1289 4.52413 0
      vertex 2.67913 4.22164 0
    endloop
  endfacet
  facet normal 0.844329 -0.535826 0
    outer loop
      vertex -4.38153 2.40877 5
      vertex -4.04508 2.93893 0
      vertex -4.04508 2.93893 5
    endloop
  endfacet
  facet normal 0.844329 -0.535826 0
    outer loop
      vertex -4.04508 2.93893 0
      vertex -4.38153 2.40877 5
      vertex -4.38153 2.40877 0
    endloop
  endfacet
  facet normal 0.770513 -0.637424 0
    outer loop
      vertex -4.04508 2.93893 5
      vertex -3.64484 3.42274 0
      vertex -3.64484 3.42274 5
    endloop
  endfacet
  facet normal 0.770513 -0.637424 0
    outer loop
      vertex -3.64484 3.42274 0
      vertex -4.04508 2.93893 5
      vertex -4.04508 2.93893 0
    endloop
  endfacet
  facet normal 0.951056 -0.309018 0
    outer loop
      vertex -4.84292 1.24345 5
      vertex -4.64888 1.84062 0
      vertex -4.64888 1.84062 5
    endloop
  endfacet
  facet normal 0.951056 -0.309018 0
    outer loop
      vertex -4.64888 1.84062 0
      vertex -4.84292 1.24345 5
      vertex -4.84292 1.24345 0
    endloop
  endfacet
  facet normal 0.587785 -0.809017 0
    outer loop
      vertex -3.18712 3.85257 0
      vertex -2.67913 4.22164 5
      vertex -3.18712 3.85257 5
    endloop
  endfacet
  facet normal 0.587785 -0.809017 0
    outer loop
      vertex -2.67913 4.22164 5
      vertex -3.18712 3.85257 0
      vertex -2.67913 4.22164 0
    endloop
  endfacet
  facet normal 0.24869 -0.968583 0
    outer loop
      vertex -1.54508 4.75528 0
      vertex -0.936906 4.91144 5
      vertex -1.54508 4.75528 5
    endloop
  endfacet
  facet normal 0.24869 -0.968583 0
    outer loop
      vertex -0.936906 4.91144 5
      vertex -1.54508 4.75528 0
      vertex -0.936906 4.91144 0
    endloop
  endfacet
  facet normal -0.951056 0.309018 0
    outer loop
      vertex 4.64888 -1.84062 0
      vertex 4.84292 -1.24345 5
      vertex 4.84292 -1.24345 0
    endloop
  endfacet
  facet normal -0.951056 0.309018 0
    outer loop
      vertex 4.84292 -1.24345 5
      vertex 4.64888 -1.84062 0
      vertex 4.64888 -1.84062 5
    endloop
  endfacet
  facet normal -0.125333 0.992115 0
    outer loop
      vertex 0.936906 -4.91144 0
      vertex 0.313952 -4.99013 5
      vertex 0.936906 -4.91144 5
    endloop
  endfacet
  facet normal -0.125333 0.992115 0
    outer loop
      vertex 0.313952 -4.99013 5
      vertex 0.936906 -4.91144 0
      vertex 0.313952 -4.99013 0
    endloop
  endfacet
  facet normal -0.951056 -0.309018 0
    outer loop
      vertex 4.84292 1.24345 0
      vertex 4.64888 1.84062 5
      vertex 4.64888 1.84062 0
    endloop
  endfacet
  facet normal -0.951056 -0.309018 0
    outer loop
      vertex 4.64888 1.84062 5
      vertex 4.84292 1.24345 0
      vertex 4.84292 1.24345 5
    endloop
  endfacet
  facet normal -0.770513 -0.637424 0
    outer loop
      vertex 4.04508 2.93893 0
      vertex 3.64484 3.42274 5
      vertex 3.64484 3.42274 0
    endloop
  endfacet
  facet normal -0.770513 -0.637424 0
    outer loop
      vertex 3.64484 3.42274 5
      vertex 4.04508 2.93893 0
      vertex 4.04508 2.93893 5
    endloop
  endfacet
  facet normal -0.844329 -0.535826 0
    outer loop
      vertex 4.38153 2.40877 0
      vertex 4.04508 2.93893 5
      vertex 4.04508 2.93893 0
    endloop
  endfacet
  facet normal -0.844329 -0.535826 0
    outer loop
      vertex 4.04508 2.93893 5
      vertex 4.38153 2.40877 0
      vertex 4.38153 2.40877 5
    endloop
  endfacet
  facet normal -0.125333 -0.992115 0
    outer loop
      vertex 0.313952 4.99013 0
      vertex 0.936906 4.91144 5
      vertex 0.313952 4.99013 5
    endloop
  endfacet
  facet normal -0.125333 -0.992115 -0
    outer loop
      vertex 0.936906 4.91144 5
      vertex 0.313952 4.99013 0
      vertex 0.936906 4.91144 0
    endloop
  endfacet
  facet normal -0.587785 -0.809017 0
    outer loop
      vertex 2.67913 4.22164 0
      vertex 3.18712 3.85257 5
      vertex 2.67913 4.22164 5
    endloop
  endfacet
  facet normal -0.587785 -0.809017 -0
    outer loop
      vertex 3.18712 3.85257 5
      vertex 2.67913 4.22164 0
      vertex 3.18712 3.85257 0
    endloop
  endfacet
  facet normal 0.904827 -0.425779 0
    outer loop
      vertex -4.64888 1.84062 5
      vertex -4.38153 2.40877 0
      vertex -4.38153 2.40877 5
    endloop
  endfacet
  facet normal 0.904827 -0.425779 0
    outer loop
      vertex -4.38153 2.40877 0
      vertex -4.64888 1.84062 5
      vertex -4.64888 1.84062 0
    endloop
  endfacet
  facet normal 0.982287 -0.187381 0
    outer loop
      vertex -4.96057 0.626666 5
      vertex -4.84292 1.24345 0
      vertex -4.84292 1.24345 5
    endloop
  endfacet
  facet normal 0.982287 -0.187381 0
    outer loop
      vertex -4.84292 1.24345 0
      vertex -4.96057 0.626666 5
      vertex -4.96057 0.626666 0
    endloop
  endfacet
  facet normal 0.125333 -0.992115 0
    outer loop
      vertex -0.936906 4.91144 0
      vertex -0.313952 4.99013 5
      vertex -0.936906 4.91144 5
    endloop
  endfacet
  facet normal 0.125333 -0.992115 0
    outer loop
      vertex -0.313952 4.99013 5
      vertex -0.936906 4.91144 0
      vertex -0.313952 4.99013 0
    endloop
  endfacet
  facet normal -0.982287 0.187381 0
    outer loop
      vertex 4.84292 -1.24345 0
      vertex 4.96057 -0.626666 5
      vertex 4.96057 -0.626666 0
    endloop
  endfacet
  facet normal -0.982287 0.187381 0
    outer loop
      vertex 4.96057 -0.626666 5
      vertex 4.84292 -1.24345 0
      vertex 4.84292 -1.24345 5
    endloop
  endfacet
  facet normal -0.587785 0.809017 0
    outer loop
      vertex 3.18712 -3.85257 0
      vertex 2.67913 -4.22164 5
      vertex 3.18712 -3.85257 5
    endloop
  endfacet
  facet normal -0.587785 0.809017 0
    outer loop
      vertex 2.67913 -4.22164 5
      vertex 3.18712 -3.85257 0
      vertex 2.67913 -4.22164 0
    endloop
  endfacet
  facet normal -0.368126 0.929776 0
    outer loop
      vertex 2.1289 -4.52413 0
      vertex 1.54508 -4.75528 5
      vertex 2.1289 -4.52413 5
    endloop
  endfacet
  facet normal -0.368126 0.929776 0
    outer loop
      vertex 1.54508 -4.75528 5
      vertex 2.1289 -4.52413 0
      vertex 1.54508 -4.75528 0
    endloop
  endfacet
  facet normal 0.481754 -0.876307 0
    outer loop
      vertex -2.67913 4.22164 0
      vertex -2.1289 4.52413 5
      vertex -2.67913 4.22164 5
    endloop
  endfacet
  facet normal 0.481754 -0.876307 0
    outer loop
      vertex -2.1289 4.52413 5
      vertex -2.67913 4.22164 0
      vertex -2.1289 4.52413 0
    endloop
  endfacet
  facet normal -0.770513 0.637424 0
    outer loop
      vertex 3.64484 -3.42274 0
      vertex 4.04508 -2.93893 5
      vertex 4.04508 -2.93893 0
    endloop
  endfacet
  facet normal -0.770513 0.637424 0
    outer loop
      vertex 4.04508 -2.93893 5
      vertex 3.64484 -3.42274 0
      vertex 3.64484 -3.42274 5
    endloop
  endfacet
  facet normal -0.904827 0.425779 0
    outer loop
      vertex 4.38153 -2.40877 0
      vertex 4.64888 -1.84062 5
      vertex 4.64888 -1.84062 0
    endloop
  endfacet
  facet normal -0.904827 0.425779 0
    outer loop
      vertex 4.64888 -1.84062 5
      vertex 4.38153 -2.40877 0
      vertex 4.38153 -2.40877 5
    endloop
  endfacet
  facet normal -0.998027 0.062791 0
    outer loop
      vertex 4.96057 -0.626666 0
      vertex 5 0 5
      vertex 5 0 0
    endloop
  endfacet
  facet normal -0.998027 0.062791 0
    outer loop
      vertex 5 0 5
      vertex 4.96057 -0.626666 0
      vertex 4.96057 -0.626666 5
    endloop
  endfacet
  facet normal 0.770513 0.637424 0
    outer loop
      vertex -3.64484 -3.42274 5
      vertex -4.04508 -2.93893 0
      vertex -4.04508 -2.93893 5
    endloop
  endfacet
  facet normal 0.770513 0.637424 0
    outer loop
      vertex -4.04508 -2.93893 0
      vertex -3.64484 -3.42274 5
      vertex -3.64484 -3.42274 0
    endloop
  endfacet
  facet normal 0.904827 0.425779 0
    outer loop
      vertex -4.38153 -2.40877 5
      vertex -4.64888 -1.84062 0
      vertex -4.64888 -1.84062 5
    endloop
  endfacet
  facet normal 0.904827 0.425779 0
    outer loop
      vertex -4.64888 -1.84062 0
      vertex -4.38153 -2.40877 5
      vertex -4.38153 -2.40877 0
    endloop
  endfacet
  facet normal 0.951056 0.309018 0
    outer loop
      vertex -4.64888 -1.84062 5
      vertex -4.84292 -1.24345 0
      vertex -4.84292 -1.24345 5
    endloop
  endfacet
  facet normal 0.951056 0.309018 0
    outer loop
      vertex -4.84292 -1.24345 0
      vertex -4.64888 -1.84062 5
      vertex -4.64888 -1.84062 0
    endloop
  endfacet
  facet normal 0.998027 0.062791 0
    outer loop
      vertex -4.96057 -0.626666 5
      vertex -5 0 0
      vertex -5 0 5
    endloop
  endfacet
  facet normal 0.998027 0.062791 0
    outer loop
      vertex -5 0 0
      vertex -4.96057 -0.626666 5
      vertex -4.96057 -0.626666 0
    endloop
  endfacet
  facet normal -0.684547 0.728969 0
    outer loop
      vertex 3.64484 -3.42274 0
      vertex 3.18712 -3.85257 5
      vertex 3.64484 -3.42274 5
    endloop
  endfacet
  facet normal -0.684547 0.728969 0
    outer loop
      vertex 3.18712 -3.85257 5
      vertex 3.64484 -3.42274 0
      vertex 3.18712 -3.85257 0
    endloop
  endfacet
  facet normal -0.481754 0.876307 0
    outer loop
      vertex 2.67913 -4.22164 0
      vertex 2.1289 -4.52413 5
      vertex 2.67913 -4.22164 5
    endloop
  endfacet
  facet normal -0.481754 0.876307 0
    outer loop
      vertex 2.1289 -4.52413 5
      vertex 2.67913 -4.22164 0
      vertex 2.1289 -4.52413 0
    endloop
  endfacet
  facet normal -0.24869 0.968583 0
    outer loop
      vertex 1.54508 -4.75528 0
      vertex 0.936906 -4.91144 5
      vertex 1.54508 -4.75528 5
    endloop
  endfacet
  facet normal -0.24869 0.968583 0
    outer loop
      vertex 0.936906 -4.91144 5
      vertex 1.54508 -4.75528 0
      vertex 0.936906 -4.91144 0
    endloop
  endfacet
  facet normal -0.844329 0.535826 0
    outer loop
      vertex 4.04508 -2.93893 0
      vertex 4.38153 -2.40877 5
      vertex 4.38153 -2.40877 0
    endloop
  endfacet
  facet normal -0.844329 0.535826 0
    outer loop
      vertex 4.38153 -2.40877 5
      vertex 4.04508 -2.93893 0
      vertex 4.04508 -2.93893 5
    endloop
  endfacet
  facet normal 0.125333 0.992115 -0
    outer loop
      vertex -0.313952 -4.99013 0
      vertex -0.936906 -4.91144 5
      vertex -0.313952 -4.99013 5
    endloop
  endfacet
  facet normal 0.125333 0.992115 0
    outer loop
      vertex -0.936906 -4.91144 5
      vertex -0.313952 -4.99013 0
      vertex -0.936906 -4.91144 0
    endloop
  endfacet
  facet normal 0.684547 0.728969 -0
    outer loop
      vertex -3.18712 -3.85257 0
      vertex -3.64484 -3.42274 5
      vertex -3.18712 -3.85257 5
    endloop
  endfacet
  facet normal 0.684547 0.728969 0
    outer loop
      vertex -3.64484 -3.42274 5
      vertex -3.18712 -3.85257 0
      vertex -3.64484 -3.42274 0
    endloop
  endfacet
  facet normal 0.844329 0.535826 0
    outer loop
      vertex -4.04508 -2.93893 5
      vertex -4.38153 -2.40877 0
      vertex -4.38153 -2.40877 5
    endloop
  endfacet
  facet normal 0.844329 0.535826 0
    outer loop
      vertex -4.38153 -2.40877 0
      vertex -4.04508 -2.93893 5
      vertex -4.04508 -2.93893 0
    endloop
  endfacet
  facet normal 0.982287 0.187381 0
    outer loop
      vertex -4.84292 -1.24345 5
      vertex -4.96057 -0.626666 0
      vertex -4.96057 -0.626666 5
    endloop
  endfacet
  facet normal 0.982287 0.187381 0
    outer loop
      vertex -4.96057 -0.626666 0
      vertex -4.84292 -1.24345 5
      vertex -4.84292 -1.24345 0
    endloop
  endfacet
  facet normal 0.24869 0.968583 -0
    outer loop
      vertex -0.936906 -4.91144 0
      vertex -1.54508 -4.75528 5
      vertex -0.936906 -4.91144 5
    endloop
  endfacet
  facet normal 0.24869 0.968583 0
    outer loop
      vertex -1.54508 -4.75528 5
      vertex -0.936906 -4.91144 0
      vertex -1.54508 -4.75528 0
    endloop
  endfacet
  facet normal 0.587785 0.809017 -0
    outer loop
      vertex -2.67913 -4.22164 0
      vertex -3.18712 -3.85257 5
      vertex -2.67913 -4.22164 5
    endloop
  endfacet
  facet normal 0.587785 0.809017 0
    outer loop
      vertex -3.18712 -3.85257 5
      vertex -2.67913 -4.22164 0
      vertex -3.18712 -3.85257 0
    endloop
  endfacet
  facet normal 0.368126 0.929776 -0
    outer loop
      vertex -1.54508 -4.75528 0
      vertex -2.1289 -4.52413 5
      vertex -1.54508 -4.75528 5
    endloop
  endfacet
  facet normal 0.368126 0.929776 0
    outer loop
      vertex -2.1289 -4.52413 5
      vertex -1.54508 -4.75528 0
      vertex -2.1289 -4.52413 0
    endloop
  endfacet
  facet normal 0.481754 0.876307 -0
    outer loop
      vertex -2.1289 -4.52413 0
      vertex -2.67913 -4.22164 5
      vertex -2.1289 -4.52413 5
    endloop
  endfacet
  facet normal 0.481754 0.876307 0
    outer loop
      vertex -2.67913 -4.22164 5
      vertex -2.1289 -4.52413 0
      vertex -2.67913 -4.22164 0
    endloop
  endfacet
endsolid OpenSCAD_Model
